# xmcd
#
# Track frame offsets: 
#        150
#        15448
#        33932
#        54495
#        74161
#        91469
#        108833
#        132693
#        147079
#        167095
#        184976
#        201134
#        214045
#        230949
#
# Disc length: 3289 seconds
#
# Revision: 4
# Processed by: cddbd v1.5.1PL0 Copyright (c) Steve Scherf et al.
# Submitted via: ExactAudioCopy v0.95a5
#
DISCID=d10cd70e
DTITLE=Various Artist - Swingin' The Blues Vol. 1 (artist - title)
DYEAR=1900
DGENRE=
TTITLE0=Lynn August - Love At First Sight
TTITLE1=Coco Montoya - Tumbleweed
TTITLE2=Grady Grains - Have Fun, Baby
TTITLE3=Hoopsnakes - Walk Real Slow
TTITLE4=Microwave Dave and the Nukes - Road Runner
TTITLE5=Kelly Hunt - If I Don't Dance
TTITLE6=Junior Watson - Mojo Boogie
TTITLE7=Francine Reed - You Bug Me
TTITLE8=Michelle Wilson - You Got What It Takes
TTITLE9=Greg Fingers Taylor - Scratch My Back - Tip On In
TTITLE10=Lynn August - Undivided Love
TTITLE11=Toni Lynn Washington - Knock Once
TTITLE12=Hoopsnakes - Doctor Doctor
TTITLE13=Dick's Hat Band - Good Time To Hit The Road
EXTD=
EXTT0=
EXTT1=
EXTT2=
EXTT3=
EXTT4=
EXTT5=
EXTT6=
EXTT7=
EXTT8=
EXTT9=
EXTT10=
EXTT11=
EXTT12=
EXTT13=
PLAYORDER=
